<svg width="1040" height="720" viewBox="0 0 1040 720" fill="none" xmlns="http://www.w3.org/2000/svg" role="img" aria-labelledby="title desc">
  <title id="title">Specorator workflow artifact map</title>
  <desc id="desc">A product-style workflow visual showing discovery, lifecycle stages, quality gates, and traceability artifacts.</desc>
  <rect width="1040" height="720" rx="28" fill="#F7F8F4"></rect>
  <rect x="48" y="44" width="944" height="632" rx="24" fill="#FFFFFF" stroke="#D8DED3" stroke-width="2"></rect>
  <rect x="84" y="80" width="872" height="88" rx="18" fill="#17201B"></rect>
  <text x="116" y="119" fill="#FAFBF8" font-family="Inter, Arial, sans-serif" font-size="28" font-weight="700">Specorator</text>
  <text x="116" y="146" fill="#C7D5CD" font-family="Inter, Arial, sans-serif" font-size="16">Specs first. Agents in lanes. Quality gates before code moves.</text>
  <rect x="766" y="104" width="154" height="40" rx="20" fill="#E6FF70"></rect>
  <text x="804" y="130" fill="#17201B" font-family="Inter, Arial, sans-serif" font-size="15" font-weight="700">Ready to ship</text>

  <text x="88" y="224" fill="#58635E" font-family="Inter, Arial, sans-serif" font-size="13" font-weight="700" letter-spacing=".12em">DISCOVERY TRACK</text>
  <rect x="84" y="244" width="136" height="74" rx="14" fill="#E6F6EF" stroke="#A8D9C4"></rect>
  <text x="116" y="277" fill="#17201B" font-family="Inter, Arial, sans-serif" font-size="16" font-weight="700">Frame</text>
  <text x="111" y="299" fill="#59645E" font-family="Inter, Arial, sans-serif" font-size="13">Problem space</text>
  <rect x="244" y="244" width="136" height="74" rx="14" fill="#E6F6EF" stroke="#A8D9C4"></rect>
  <text x="275" y="277" fill="#17201B" font-family="Inter, Arial, sans-serif" font-size="16" font-weight="700">Diverge</text>
  <text x="280" y="299" fill="#59645E" font-family="Inter, Arial, sans-serif" font-size="13">Options</text>
  <rect x="404" y="244" width="136" height="74" rx="14" fill="#E6F6EF" stroke="#A8D9C4"></rect>
  <text x="433" y="277" fill="#17201B" font-family="Inter, Arial, sans-serif" font-size="16" font-weight="700">Converge</text>
  <text x="440" y="299" fill="#59645E" font-family="Inter, Arial, sans-serif" font-size="13">Brief</text>
  <path d="M220 281H244" stroke="#7EA793" stroke-width="3" stroke-linecap="round"></path>
  <path d="M380 281H404" stroke="#7EA793" stroke-width="3" stroke-linecap="round"></path>

  <text x="88" y="382" fill="#58635E" font-family="Inter, Arial, sans-serif" font-size="13" font-weight="700" letter-spacing=".12em">LIFECYCLE TRACK</text>
  <g fill="#EEF1EA" stroke="#CAD3C7">
    <rect x="84" y="404" width="96" height="62" rx="13"></rect>
    <rect x="198" y="404" width="96" height="62" rx="13"></rect>
    <rect x="312" y="404" width="110" height="62" rx="13"></rect>
    <rect x="440" y="404" width="96" height="62" rx="13"></rect>
    <rect x="554" y="404" width="118" height="62" rx="13"></rect>
    <rect x="690" y="404" width="96" height="62" rx="13"></rect>
    <rect x="804" y="404" width="108" height="62" rx="13"></rect>
  </g>
  <g fill="#17201B" font-family="Inter, Arial, sans-serif" font-size="14" font-weight="700">
    <text x="118" y="441">Idea</text>
    <text x="219" y="441">Research</text>
    <text x="330" y="441">Requirements</text>
    <text x="471" y="441">Design</text>
    <text x="580" y="441">Specification</text>
    <text x="713" y="441">Tasks</text>
    <text x="828" y="441">Build</text>
  </g>
  <g stroke="#9AA89F" stroke-width="3" stroke-linecap="round">
    <path d="M180 435H198"></path>
    <path d="M294 435H312"></path>
    <path d="M422 435H440"></path>
    <path d="M536 435H554"></path>
    <path d="M672 435H690"></path>
    <path d="M786 435H804"></path>
  </g>

  <rect x="84" y="520" width="250" height="82" rx="16" fill="#FFF8D8" stroke="#E2CF73"></rect>
  <text x="112" y="553" fill="#17201B" font-family="Inter, Arial, sans-serif" font-size="17" font-weight="700">Quality gate</text>
  <text x="112" y="579" fill="#59645E" font-family="Inter, Arial, sans-serif" font-size="14">Deterministic checks first, then review.</text>
  <rect x="388" y="520" width="250" height="82" rx="16" fill="#EBF0FF" stroke="#B9C5ED"></rect>
  <text x="416" y="553" fill="#17201B" font-family="Inter, Arial, sans-serif" font-size="17" font-weight="700">Traceability</text>
  <text x="416" y="579" fill="#59645E" font-family="Inter, Arial, sans-serif" font-size="14">Requirement to spec to task to test.</text>
  <rect x="692" y="520" width="220" height="82" rx="16" fill="#F2E9FF" stroke="#D0B8F0"></rect>
  <text x="720" y="553" fill="#17201B" font-family="Inter, Arial, sans-serif" font-size="17" font-weight="700">PR discipline</text>
  <text x="720" y="579" fill="#59645E" font-family="Inter, Arial, sans-serif" font-size="14">Worktree, verify, review, ship.</text>

  <path d="M472 319C472 356 472 369 472 404" stroke="#7EA793" stroke-width="3" stroke-linecap="round" stroke-dasharray="7 8"></path>
  <path d="M534 466C534 496 534 501 534 520" stroke="#8E98B8" stroke-width="3" stroke-linecap="round"></path>
</svg>